<?xml version="1.0" standalone="no"?>
<!DOCTYPE svg PUBLIC "-//W3C//DTD SVG 20010904//EN"
 "http://www.w3.org/TR/2001/REC-SVG-20010904/DTD/svg10.dtd">
<svg version="1.0" xmlns="http://www.w3.org/2000/svg"
 width="612.000000pt" height="612.000000pt" viewBox="0 0 612.000000 612.000000"
 preserveAspectRatio="xMidYMid meet">
<metadata>
Created by potrace 1.14, written by Peter Selinger 2001-2017
</metadata>
<g transform="translate(0.000000,612.000000) scale(0.100000,-0.100000)"
fill="#000000" stroke="none">
<path d="M2850 6117 c-3 -2 -41 -7 -85 -11 -44 -3 -96 -8 -115 -11 -121 -20
-165 -28 -250 -46 -313 -68 -684 -215 -915 -364 -223 -143 -268 -175 -405
-291 -564 -479 -939 -1150 -1045 -1869 -9 -60 -18 -123 -21 -140 -10 -58 -13
-531 -3 -620 105 -996 654 -1850 1512 -2354 331 -194 691 -319 1107 -384 115
-18 179 -21 430 -21 252 0 315 3 430 21 302 48 578 128 828 241 931 422 1592
1278 1761 2281 31 184 36 260 35 541 -1 273 -17 423 -69 650 -208 905 -812
1667 -1640 2069 -307 149 -586 234 -945 287 -96 14 -599 31 -610 21z"/>
</g>
</svg>
